<svg width="88" height="88" viewBox="0 0 88 88" fill="none" xmlns="http://www.w3.org/2000/svg">
<g filter="url(#filter0_d_1_204)">
<circle cx="44" cy="40" r="40" fill="#FF7300"/>
<path d="M68.9333 41.1667C63.7 27.5667 45.0667 26.8333 49.5667 7.06667C49.9 5.6 48.3333 4.46667 47.0667 5.23333C34.9667 12.3667 26.2667 26.6667 33.5667 45.4C34.1667 46.9333 32.3667 48.3667 31.0667 47.3667C25.0333 42.8 24.4 36.2333 24.9333 31.5333C25.1333 29.8 22.8667 28.9667 21.9 30.4C19.6333 33.8667 17.3333 39.4667 17.3333 47.9C18.6 66.5667 34.3667 72.3 40.0333 73.0333C48.1333 74.0667 56.9 72.5667 63.2 66.8C70.1333 60.3667 72.6667 50.1 68.9333 41.1667ZM38 57.9333C42.8 56.7667 45.2667 53.3 45.9333 50.2333C47.0333 45.4667 42.7333 40.8 45.6333 33.2667C46.7333 39.5 56.5333 43.4 56.5333 50.2C56.8 58.6333 47.6667 65.8667 38 57.9333Z" fill="black"/>
</g>
<defs>
<filter id="filter0_d_1_204" x="0" y="0" width="88" height="88" filterUnits="userSpaceOnUse" color-interpolation-filters="sRGB">
<feFlood flood-opacity="0" result="BackgroundImageFix"/>
<feColorMatrix in="SourceAlpha" type="matrix" values="0 0 0 0 0 0 0 0 0 0 0 0 0 0 0 0 0 0 127 0" result="hardAlpha"/>
<feOffset dy="4"/>
<feGaussianBlur stdDeviation="2"/>
<feComposite in2="hardAlpha" operator="out"/>
<feColorMatrix type="matrix" values="0 0 0 0 0 0 0 0 0 0 0 0 0 0 0 0 0 0 0.25 0"/>
<feBlend mode="normal" in2="BackgroundImageFix" result="effect1_dropShadow_1_204"/>
<feBlend mode="normal" in="SourceGraphic" in2="effect1_dropShadow_1_204" result="shape"/>
</filter>
</defs>
</svg>
