<svg width="100" height="100" viewBox="0 0 100 100" fill="none" xmlns="http://www.w3.org/2000/svg">
<rect width="73.1121" height="72.9258" transform="matrix(0.867126 -0.498088 0.501914 0.864917 0 36.9252)" fill="#476E99"/>
<rect width="73.1121" height="72.9258" transform="matrix(0.867126 0.498088 -0.501914 0.864917 36.6025 0)" fill="#476E99"/>
<path d="M48.3125 42.7656C47.75 42.8594 47.1875 42.9531 46.625 43.0469C46.0625 43.1406 45.5625 43.2188 45.125 43.2812C44.5938 43.375 44.0938 43.4531 43.625 43.5156C43.1562 43.6094 42.6406 43.6875 42.0781 43.75C41.6094 43.8125 41.0625 43.875 40.4375 43.9375C39.8125 43.9688 39.1562 44 38.4688 44.0312C38.5312 43.7812 38.5938 43.4688 38.6562 43.0938C38.75 42.7188 38.8281 42.3594 38.8906 42.0156C38.9844 41.6094 39.0625 41.1875 39.125 40.75C39.2188 40.1875 39.2812 39.7188 39.3125 39.3438C39.375 38.9688 39.4219 38.6406 39.4531 38.3594C39.5156 38.0781 39.5938 37.8281 39.6875 37.6094C39.7812 37.3906 39.9531 37.1719 40.2031 36.9531C40.5781 36.6094 41.0469 36.2344 41.6094 35.8281C42.2031 35.3906 42.9062 35.0156 43.7188 34.7031C44.5625 34.3594 45.5312 34.0938 46.625 33.9062C47.75 33.7188 49.0469 33.6719 50.5156 33.7656C51.9844 33.8594 53.2031 34.0156 54.1719 34.2344C55.1406 34.4531 55.9531 34.7344 56.6094 35.0781C57.2656 35.3906 57.7969 35.7656 58.2031 36.2031C58.6406 36.6094 59.0469 37.0938 59.4219 37.6562C59.7969 38.2188 60.1562 38.9062 60.5 39.7188C60.875 40.5 61.1875 41.3281 61.4375 42.2031C61.6875 43.0781 61.8281 43.9531 61.8594 44.8281C61.9219 45.7031 61.8438 46.4844 61.625 47.1719C61.3438 47.7344 60.7969 48.2969 59.9844 48.8594C59.2656 49.3594 58.2344 49.9219 56.8906 50.5469C55.5781 51.1719 53.75 51.7969 51.4062 52.4219C51.4688 53.0156 51.5625 53.5469 51.6875 54.0156C51.8125 54.4844 51.9375 54.8906 52.0625 55.2344C52.1875 55.6406 52.3438 56 52.5312 56.3125C52.7188 56.5938 52.8906 56.9062 53.0469 57.25C53.2031 57.5312 53.3594 57.8438 53.5156 58.1875C53.7031 58.5 53.875 58.7969 54.0312 59.0781L44.8438 60.2031C45.125 59.8594 45.3438 59.5 45.5 59.125C45.6875 58.7188 45.8281 58.3438 45.9219 58C46.0469 57.5938 46.1094 57.1875 46.1094 56.7812C46.1094 56.3438 46.0781 55.8125 46.0156 55.1875C45.9531 54.6562 45.8594 53.9844 45.7344 53.1719C45.6406 52.3281 45.4688 51.3438 45.2188 50.2188C46.6875 50.1562 47.8906 50 48.8281 49.75C49.7969 49.4688 50.5781 49.1875 51.1719 48.9062C51.8594 48.5625 52.3906 48.2031 52.7656 47.8281C53.0469 47.4844 53.2812 46.9531 53.4688 46.2344C53.6875 45.4844 53.8281 44.6562 53.8906 43.75C53.9844 42.8438 53.9844 41.9219 53.8906 40.9844C53.7969 40.0156 53.5781 39.1562 53.2344 38.4062C52.8906 37.6562 52.4062 37.0625 51.7812 36.625C51.1875 36.1562 50.4219 35.9531 49.4844 36.0156C48.0781 36.1406 47.0156 36.4062 46.2969 36.8125C45.5781 37.1875 45.0781 37.6094 44.7969 38.0781C44.5156 38.5469 44.375 39.0156 44.375 39.4844C44.4062 39.9531 44.4531 40.2969 44.5156 40.5156C44.5469 40.7344 44.7188 40.9531 45.0312 41.1719C45.2812 41.3906 45.6562 41.625 46.1562 41.875C46.6875 42.125 47.4062 42.4219 48.3125 42.7656ZM49.2031 61.8438C50.3281 61.6875 51.2031 61.875 51.8281 62.4062C52.4844 62.9375 52.7969 63.6719 52.7656 64.6094C52.7344 65.0781 52.6406 65.4531 52.4844 65.7344C52.3281 66.0156 52.1094 66.2344 51.8281 66.3906C51.5781 66.5156 51.2656 66.625 50.8906 66.7188C50.5469 66.7812 50.1406 66.8438 49.6719 66.9062C49.2031 67 48.75 66.9844 48.3125 66.8594C47.875 66.7031 47.4844 66.4844 47.1406 66.2031C46.7969 65.9219 46.5156 65.6094 46.2969 65.2656C46.1094 64.9219 46.0156 64.5781 46.0156 64.2344C46.0156 63.8594 46.1094 63.5469 46.2969 63.2969C46.5156 63.0156 46.7812 62.7812 47.0938 62.5938C47.4375 62.375 47.7812 62.2188 48.125 62.125C48.5 62 48.8594 61.9062 49.2031 61.8438Z" fill="white"/>
</svg>
