<svg width="88" height="88" viewBox="0 0 88 88" fill="none" xmlns="http://www.w3.org/2000/svg">
<g filter="url(#filter0_d_1_227)">
<circle cx="44" cy="40" r="40" fill="#2F80ED"/>
</g>
<path d="M20.6667 34.1667C19.8931 34.1667 19.1513 33.8594 18.6043 33.3124C18.0573 32.7654 17.75 32.0236 17.75 31.25C17.75 30.4765 18.0573 29.7346 18.6043 29.1876C19.1513 28.6406 19.8931 28.3333 20.6667 28.3333H44C45.5471 28.3333 47.0308 27.7188 48.1248 26.6248C49.2187 25.5308 49.8333 24.0471 49.8333 22.5C49.8333 20.9529 49.2187 19.4692 48.1248 18.3752C47.0308 17.2813 45.5471 16.6667 44 16.6667C42.3958 16.6667 40.9375 17.3083 39.8875 18.3875C38.75 19.5833 36.8833 19.5833 35.7458 18.3875C34.6083 17.25 34.6083 15.3833 35.7458 14.2458C37.875 12.1458 40.7917 10.8333 44 10.8333C47.0942 10.8333 50.0617 12.0625 52.2496 14.2504C54.4375 16.4384 55.6667 19.4058 55.6667 22.5C55.6667 25.5942 54.4375 28.5617 52.2496 30.7496C50.0617 32.9375 47.0942 34.1667 44 34.1667H20.6667ZM64.4167 40C65.1902 40 65.9321 39.6927 66.4791 39.1457C67.026 38.5988 67.3333 37.8569 67.3333 37.0833C67.3333 36.3098 67.026 35.5679 66.4791 35.0209C65.9321 34.474 65.1902 34.1667 64.4167 34.1667C63.6 34.1667 62.8708 34.4875 62.3458 35.0125C61.2083 36.15 59.3708 36.15 58.2333 35.0125C57.125 33.875 57.125 32.0375 58.2333 30.9C59.8083 29.325 61.9958 28.3333 64.4167 28.3333C66.7373 28.3333 68.9629 29.2552 70.6038 30.8962C72.2448 32.5371 73.1667 34.7627 73.1667 37.0833C73.1667 39.404 72.2448 41.6296 70.6038 43.2705C68.9629 44.9115 66.7373 45.8333 64.4167 45.8333H23.5833C22.8098 45.8333 22.0679 45.5261 21.5209 44.9791C20.974 44.4321 20.6667 43.6902 20.6667 42.9167C20.6667 42.1431 20.974 41.4013 21.5209 40.8543C22.0679 40.3073 22.8098 40 23.5833 40H64.4167ZM61.5 57.5H20.6667C19.8931 57.5 19.1513 57.1927 18.6043 56.6457C18.0573 56.0988 17.75 55.3569 17.75 54.5833C17.75 53.8098 18.0573 53.0679 18.6043 52.5209C19.1513 51.974 19.8931 51.6667 20.6667 51.6667H61.5C63.8206 51.6667 66.0462 52.5885 67.6872 54.2295C69.3281 55.8704 70.25 58.096 70.25 60.4167C70.25 62.7373 69.3281 64.9629 67.6872 66.6039C66.0462 68.2448 63.8206 69.1667 61.5 69.1667C59.0792 69.1667 56.8917 68.175 55.3167 66.6C54.2083 65.4625 54.2083 63.625 55.3167 62.4875C56.4542 61.35 58.2917 61.35 59.4292 62.4875C59.9542 63.0125 60.6833 63.3333 61.5 63.3333C62.2735 63.3333 63.0154 63.0261 63.5624 62.4791C64.1094 61.9321 64.4167 61.1902 64.4167 60.4167C64.4167 59.6431 64.1094 58.9013 63.5624 58.3543C63.0154 57.8073 62.2735 57.5 61.5 57.5Z" fill="black"/>
<defs>
<filter id="filter0_d_1_227" x="0" y="0" width="88" height="88" filterUnits="userSpaceOnUse" color-interpolation-filters="sRGB">
<feFlood flood-opacity="0" result="BackgroundImageFix"/>
<feColorMatrix in="SourceAlpha" type="matrix" values="0 0 0 0 0 0 0 0 0 0 0 0 0 0 0 0 0 0 127 0" result="hardAlpha"/>
<feOffset dy="4"/>
<feGaussianBlur stdDeviation="2"/>
<feComposite in2="hardAlpha" operator="out"/>
<feColorMatrix type="matrix" values="0 0 0 0 0 0 0 0 0 0 0 0 0 0 0 0 0 0 0.25 0"/>
<feBlend mode="normal" in2="BackgroundImageFix" result="effect1_dropShadow_1_227"/>
<feBlend mode="normal" in="SourceGraphic" in2="effect1_dropShadow_1_227" result="shape"/>
</filter>
</defs>
</svg>
